<mxfile host="65bd71144e">
    <diagram id="7crzbUpRCO2c_Zu49PD_" name="Page-1">
        <mxGraphModel dx="1016" dy="860" grid="1" gridSize="10" guides="1" tooltips="1" connect="1" arrows="1" fold="1" page="1" pageScale="1" pageWidth="850" pageHeight="1100" math="0" shadow="0">
            <root>
                <mxCell id="0"/>
                <mxCell id="1" parent="0"/>
                <mxCell id="4" value="Header" style="rounded=0;whiteSpace=wrap;html=1;" vertex="1" parent="1">
                    <mxGeometry x="150" y="210" width="80" height="30" as="geometry"/>
                </mxCell>
                <mxCell id="5" value="a" style="rounded=0;whiteSpace=wrap;html=1;" vertex="1" parent="1">
                    <mxGeometry x="230" y="210" width="40" height="30" as="geometry"/>
                </mxCell>
                <mxCell id="6" value="b" style="rounded=0;whiteSpace=wrap;html=1;" vertex="1" parent="1">
                    <mxGeometry x="270" y="210" width="40" height="30" as="geometry"/>
                </mxCell>
                <mxCell id="25" value="Header" style="rounded=0;whiteSpace=wrap;html=1;" vertex="1" parent="1">
                    <mxGeometry x="370" y="250" width="80" height="30" as="geometry"/>
                </mxCell>
                <mxCell id="26" value="c" style="rounded=0;whiteSpace=wrap;html=1;" vertex="1" parent="1">
                    <mxGeometry x="450" y="250" width="40" height="30" as="geometry"/>
                </mxCell>
                <mxCell id="27" value="a" style="rounded=0;whiteSpace=wrap;html=1;" vertex="1" parent="1">
                    <mxGeometry x="490" y="250" width="40" height="30" as="geometry"/>
                </mxCell>
                <mxCell id="31" value="" style="rounded=0;whiteSpace=wrap;html=1;" vertex="1" parent="1">
                    <mxGeometry x="210" y="420" width="275" height="30" as="geometry"/>
                </mxCell>
                <mxCell id="32" value="Header" style="rounded=0;whiteSpace=wrap;html=1;" vertex="1" parent="1">
                    <mxGeometry x="210" y="420" width="80" height="30" as="geometry"/>
                </mxCell>
                <mxCell id="33" value="a" style="rounded=0;whiteSpace=wrap;html=1;" vertex="1" parent="1">
                    <mxGeometry x="290" y="420" width="40" height="30" as="geometry"/>
                </mxCell>
                <mxCell id="34" value="b" style="rounded=0;whiteSpace=wrap;html=1;" vertex="1" parent="1">
                    <mxGeometry x="330" y="420" width="40" height="30" as="geometry"/>
                </mxCell>
                <mxCell id="35" value="c" style="rounded=0;whiteSpace=wrap;html=1;" vertex="1" parent="1">
                    <mxGeometry x="375" y="425" width="35" height="20" as="geometry"/>
                </mxCell>
                <mxCell id="38" value="Header" style="rounded=0;whiteSpace=wrap;html=1;" vertex="1" parent="1">
                    <mxGeometry x="370" y="210" width="80" height="30" as="geometry"/>
                </mxCell>
                <mxCell id="39" value="c" style="rounded=0;whiteSpace=wrap;html=1;" vertex="1" parent="1">
                    <mxGeometry x="450" y="210" width="40" height="30" as="geometry"/>
                </mxCell>
                <mxCell id="40" value="a" style="rounded=0;whiteSpace=wrap;html=1;" vertex="1" parent="1">
                    <mxGeometry x="490" y="210" width="40" height="30" as="geometry"/>
                </mxCell>
                <mxCell id="41" value="Header" style="rounded=0;whiteSpace=wrap;html=1;" vertex="1" parent="1">
                    <mxGeometry x="370" y="290" width="80" height="30" as="geometry"/>
                </mxCell>
                <mxCell id="42" value="c" style="rounded=0;whiteSpace=wrap;html=1;" vertex="1" parent="1">
                    <mxGeometry x="450" y="290" width="40" height="30" as="geometry"/>
                </mxCell>
                <mxCell id="43" value="a" style="rounded=0;whiteSpace=wrap;html=1;" vertex="1" parent="1">
                    <mxGeometry x="490" y="290" width="40" height="30" as="geometry"/>
                </mxCell>
                <mxCell id="44" value="foo" style="text;html=1;strokeColor=none;fillColor=none;align=center;verticalAlign=middle;whiteSpace=wrap;rounded=0;" vertex="1" parent="1">
                    <mxGeometry x="210" y="180" width="40" height="20" as="geometry"/>
                </mxCell>
                <mxCell id="45" value="bar" style="text;html=1;strokeColor=none;fillColor=none;align=center;verticalAlign=middle;whiteSpace=wrap;rounded=0;" vertex="1" parent="1">
                    <mxGeometry x="430" y="180" width="40" height="20" as="geometry"/>
                </mxCell>
                <mxCell id="46" value="denormalize" style="shape=flexArrow;endArrow=classic;html=1;" edge="1" parent="1">
                    <mxGeometry width="50" height="50" relative="1" as="geometry">
                        <mxPoint x="344" y="340" as="sourcePoint"/>
                        <mxPoint x="344" y="390" as="targetPoint"/>
                    </mxGeometry>
                </mxCell>
                <mxCell id="47" value="c" style="rounded=0;whiteSpace=wrap;html=1;" vertex="1" parent="1">
                    <mxGeometry x="410" y="425" width="35" height="20" as="geometry"/>
                </mxCell>
                <mxCell id="48" value="c" style="rounded=0;whiteSpace=wrap;html=1;" vertex="1" parent="1">
                    <mxGeometry x="445" y="425" width="35" height="20" as="geometry"/>
                </mxCell>
            </root>
        </mxGraphModel>
    </diagram>
</mxfile>